{"title":"Leatherface 2017 720p BluRay x264 AC3-CHL","magnet":"magnet:?xt=urn:btih:6331cda0a523922c3b5bfef561e196ac2b95b162&dn=Leatherface+2017+720p+BluRay+x264+AC3-CHL&tr=udp%3A%2F%2Ftracker.leechers-paradise.org%3A6969&tr=udp%3A%2F%2Fzer0day.ch%3A1337&tr=udp%3A%2F%2Fopen.demonii.com%3A1337&tr=udp%3A%2F%2Ftracker.coppersurfer.tk%3A6969&tr=udp%3A%2F%2Fexodus.desync.com%3A6969","uploader":"lyrical1986","categoryP":"video","categoryS":"movies","size":"1245761821","seeders":"2","leechers":"11","description":"Leatherface.2017.720p.BluRay.x264.AC3-CHL\r\n\r\nA teenage Leatherface escapes from a mental hospital with three other inmates, kidnapping a young nurse and taking her on a road trip from hell, while being pursued by a lawman out for revenge.\r\n\r\nFormat : Matroska\r\nFormat version : Version 4 / Version 2\r\nFile size : 1.16 GiB\r\nDuration : 1h 27mn\r\nOverall bit rate : 1 894 Kbps\r\nWriting library : Lavf57.7.2 / Lavf57.7.2\r\n\r\nVideo\r\nID : 1\r\nFormat : AVC\r\nFormat/Info : Advanced Video Codec\r\nFormat profile : <a href=\"/cdn-cgi/l/email-protection\" class=\"__cf_email__\" data-cfemail=\"6429050d0a242850\">[email&#xA0;protected]</a>\r\nFormat settings, CABAC : Yes\r\nFormat settings, ReFrames : 4 frames\r\nCodec ID : V_MPEG4/ISO/AVC\r\nDuration : 1h 27mn\r\nBit rate : 1 408 Kbps\r\nNominal bit rate : 1 500 Kbps\r\nWidth : 1 280 pixels\r\nHeight : 536 pixels\r\nDisplay aspect ratio : 2.40:1\r\nFrame rate mode : Constant\r\nFrame rate : 23.976 (24000/1001) fps\r\nColor space : YUV\r\nChroma subsampling : 4:2:0\r\nBit depth : 8 bits\r\nScan type : Progressive\r\nBits/(Pixel*Frame) : 0.086\r\nStream size : 883 MiB (74%)\r\nWriting library : x264 core 148\r\nDefault : Yes\r\nForced : No\r\nColor range : Limited\r\nColor primaries : BT.709\r\nTransfer characteristics : BT.709\r\nMatrix coefficients : BT.709\r\n\r\nAudio\r\nID : 2\r\nFormat : AC-3\r\nFormat/Info : Audio Coding 3\r\nMode extension : CM (complete main)\r\nFormat settings, Endianness : Big\r\nCodec ID : A_AC3\r\nDuration : 1h 27mn\r\nBit rate mode : Constant\r\nBit rate : 448 Kbps\r\nChannel(s) : 6 channels\r\nChannel positions : Front: L C R, Side: L R, LFE\r\nSampling rate : 48.0 KHz\r\nFrame rate : 31.250 fps (1536 spf)\r\nCompression mode : Lossy\r\nDelay relative to video : -5ms\r\nStream size : 281 MiB (24%)\r\nTitle : Surround\r\nLanguage : English\r\nDefault : Yes\r\nForced : No","last_updated":"2017-12-08T12:02:55.204Z","parsed":{"xt":"urn:btih:6331cda0a523922c3b5bfef561e196ac2b95b162","dn":"Leatherface 2017 720p BluRay x264 AC3-CHL","tr":["udp://exodus.desync.com:6969","udp://open.demonii.com:1337","udp://tracker.coppersurfer.tk:6969","udp://tracker.leechers-paradise.org:6969","udp://zer0day.ch:1337"],"infoHash":"6331cda0a523922c3b5bfef561e196ac2b95b162","infoHashBuffer":{"type":"Buffer","data":[99,49,205,160,165,35,146,44,59,91,254,245,97,225,150,172,43,149,177,98]},"name":"Leatherface 2017 720p BluRay x264 AC3-CHL","announce":["udp://exodus.desync.com:6969","udp://open.demonii.com:1337","udp://tracker.coppersurfer.tk:6969","udp://tracker.leechers-paradise.org:6969","udp://zer0day.ch:1337"],"urlList":[]}}